<?xml version="1.0" encoding="UTF-8" standalone="no"?><!DOCTYPE svg PUBLIC "-//W3C//DTD SVG 1.1//EN" "http://www.w3.org/Graphics/SVG/1.1/DTD/svg11.dtd"><svg width="100%" height="100%" viewBox="0 0 50 46" version="1.1" xmlns="http://www.w3.org/2000/svg" xmlns:xlink="http://www.w3.org/1999/xlink" xml:space="preserve" xmlns:serif="http://www.serif.com/" style="fill-rule:evenodd;clip-rule:evenodd;stroke-linejoin:round;stroke-miterlimit:1.41421;"><g id="Layer-1" serif:id="Layer 1"><g><path d="M29.823,18.642c0.308,0.361 0.57,0.759 0.785,1.196c-0.215,-0.437 -0.477,-0.835 -0.785,-1.196" style="fill:#fff;fill-rule:nonzero;"/><path d="M18.647,22.76c-0.008,0.618 0.079,1.188 0.206,1.733c-0.127,-0.545 -0.214,-1.115 -0.206,-1.733" style="fill:#fff;fill-rule:nonzero;"/><path d="M14.533,22.772c0.012,-2.157 0.719,-4.302 2.086,-6.094c-1.367,1.792 -2.074,3.937 -2.086,6.094" style="fill:#fff;fill-rule:nonzero;"/><path d="M24.964,29.172c-2.296,0 -4.228,-1.023 -5.33,-2.75c1.102,1.728 3.034,2.75 5.33,2.75c3.583,-0.047 6.318,-2.64 6.318,-6.412c0,3.771 -2.735,6.365 -6.318,6.412" style="fill:#fff;fill-rule:nonzero;"/><path d="M24.958,12.57c-2.15,-0.006 -4.308,0.619 -6.075,1.892l-2.809,-3.197l2.809,3.197c1.767,-1.273 3.925,-1.898 6.075,-1.892" style="fill:#fff;fill-rule:nonzero;"/><path d="M14.542,22.894c0.006,0.907 0.15,1.811 0.405,2.693c-0.255,-0.882 -0.399,-1.786 -0.405,-2.693" style="fill:#fff;fill-rule:nonzero;"/><path d="M28.131,13.05c1.023,0.316 1.995,0.788 2.868,1.413l2.819,-3.253l-2.819,3.252c-0.873,-0.624 -1.845,-1.096 -2.868,-1.412" style="fill:#fff;fill-rule:nonzero;"/><path d="M38.58,26.979l2.662,-4.162l-2.662,4.162Z" style="fill:#fff;fill-rule:nonzero;"/><path d="M33.356,16.631c1.437,1.862 2.156,4.007 2.163,6.152c-0.007,-2.145 -0.726,-4.29 -2.163,-6.152" style="fill:#fff;fill-rule:nonzero;"/><path d="M26.582,32.92c-2.64,0.417 -5.413,-0.165 -7.653,-1.815c2.24,1.65 5.013,2.232 7.653,1.815" style="fill:#fff;fill-rule:nonzero;"/><path d="M28.751,32.305c0.802,-0.311 1.58,-0.692 2.295,-1.2l2.832,3.223l-2.195,3.432l-13.438,0l13.438,0l2.195,-3.432l-2.832,-3.223c-0.715,0.508 -1.493,0.889 -2.295,1.2" style="fill:#fff;fill-rule:nonzero;"/><path d="M16.07,34.36l1.391,2.175l-1.391,-2.175Z" style="fill:#fff;fill-rule:nonzero;"/><path d="M14.019,31.154l-4.162,-6.506l4.162,6.506l2.6,-2.219l-2.6,2.219Z" style="fill:#fff;fill-rule:nonzero;"/><path d="M38.58,26.979l-2.663,4.162l-2.514,-2.205c1.414,-1.861 2.122,-4.007 2.116,-6.152c-0.006,-2.145 -0.725,-4.29 -2.163,-6.152l2.532,-2.185l5.354,8.37l-2.662,4.162Zm-6.897,10.781l-13.438,0l-0.784,-1.224l-1.391,-2.175l2.859,-3.256c2.24,1.65 5.013,2.232 7.653,1.815c0.742,-0.117 1.463,-0.341 2.169,-0.615c0.802,-0.31 1.58,-0.692 2.295,-1.2l2.832,3.224l-2.195,3.431Zm-17.664,-6.605l-4.162,-6.506l-1.172,-1.832l5.354,-8.37l2.58,2.231c-1.367,1.792 -2.074,3.937 -2.086,6.094c-0.001,0.041 0.009,0.082 0.009,0.122c0.006,0.907 0.15,1.811 0.405,2.693c0.189,0.654 0.421,1.298 0.747,1.913c0.263,0.497 0.572,0.977 0.925,1.436l-2.6,2.219Zm17.263,-8.395c0,3.773 -2.735,6.365 -6.318,6.412c-2.296,0 -4.228,-1.022 -5.33,-2.75c-0.363,-0.566 -0.616,-1.219 -0.782,-1.928c-0.126,-0.546 -0.213,-1.116 -0.206,-1.734c0,-3.865 2.736,-6.27 6.271,-6.27c2.048,0 3.766,0.81 4.906,2.153c0.308,0.361 0.57,0.759 0.785,1.196c0.419,0.855 0.674,1.829 0.674,2.921m-15.208,-11.494l2.243,-3.506l13.293,0l2.207,3.45l-2.818,3.253c-0.873,-0.625 -1.845,-1.096 -2.868,-1.413c-0.512,-0.157 -1.036,-0.277 -1.567,-0.357c-0.531,-0.08 -1.068,-0.121 -1.606,-0.122c-2.15,-0.006 -4.308,0.619 -6.075,1.892l-2.809,-3.197Zm19.096,-8.909l-20.412,0l-13.088,20.46l13.015,20.347l20.557,0l13.016,-20.347l-13.088,-20.46Z" style="fill:#989898;fill-rule:nonzero;"/></g></g></svg>