<?xml version="1.0" encoding="UTF-8" standalone="no"?><!DOCTYPE svg PUBLIC "-//W3C//DTD SVG 1.1//EN" "http://www.w3.org/Graphics/SVG/1.1/DTD/svg11.dtd"><svg width="100%" height="100%" viewBox="0 0 342 46" version="1.1" xmlns="http://www.w3.org/2000/svg" xmlns:xlink="http://www.w3.org/1999/xlink" xml:space="preserve" xmlns:serif="http://www.serif.com/" style="fill-rule:evenodd;clip-rule:evenodd;stroke-linejoin:round;stroke-miterlimit:1.41421;"><g id="Layer-1" serif:id="Layer 1"><path d="M21.892,9.223c4.334,0 7.542,2.364 8.161,6.867l9.062,0c-0.901,-8.611 -7.373,-14.296 -17.111,-14.296c-11.144,0 -18.742,7.598 -18.742,20.938c0,13.395 7.598,20.994 18.742,20.994c9.4,0 16.21,-5.741 17.111,-14.296l-9.062,0c-0.619,4.389 -3.715,6.867 -8.161,6.867c-6.754,0 -9.681,-5.405 -9.681,-13.565c0,-8.105 2.927,-13.509 9.681,-13.509" style="fill:#fff;fill-rule:nonzero;"/><path d="M72.825,22.113l-7.43,0l0,-12.27l7.43,0c4.447,0 7.205,1.913 7.205,6.19c0,3.997 -2.703,6.08 -7.205,6.08m16.097,-6.36c0,-7.824 -5.122,-13.396 -14.915,-13.396l-17.054,0l0,40.806l8.442,0l0,-14.184l7.992,0l6.361,14.184l8.949,0l-7.261,-15.534c4.672,-1.914 7.486,-6.023 7.486,-11.876" style="fill:#fff;fill-rule:nonzero;"/><path d="M120.437,18.905l-8.498,-16.548l-9.85,0l14.127,25.553l0,15.253l8.499,0l0,-15.253l14.071,-25.553l-10.187,0l-8.162,16.548Z" style="fill:#fff;fill-rule:nonzero;"/><path d="M171.426,22.676l-7.373,0l0,-12.777l7.373,0c3.997,0 7.374,2.252 7.374,6.36c0,3.828 -2.646,6.417 -7.374,6.417m1.351,-20.319l-17.166,0l0,40.806l8.442,0l0,-13.226l8.612,0c8.555,0 15.028,-5.348 15.028,-13.734c0,-8.33 -5.798,-13.846 -14.916,-13.846" style="fill:#fff;fill-rule:nonzero;"/><path d="M219.488,35.847l-5.854,0l0,-26.173l5.854,0c7.654,0 12.889,4.672 12.889,13.002c0,8.049 -4.785,13.171 -12.889,13.171m0.787,-33.49l-14.971,0l0,40.806l14.971,0c12.44,0 20.77,-8.048 20.77,-20.375c0,-12.326 -8.33,-20.431 -20.77,-20.431" style="fill:#fff;fill-rule:nonzero;"/><path d="M259.051,43.163l27.298,0l0,-7.316l-18.856,0l0,-9.625l13.453,0l0,-6.867l-13.453,0l0,-9.681l18.856,0l0,-7.317l-27.298,0l0,40.806Z" style="fill:#fff;fill-rule:nonzero;"/><path d="M337.731,2.301l-10.132,0l-7.316,14.127l-7.937,-14.127l-10.411,0l12.663,20.093l-12.383,20.769l10.188,0l7.317,-14.071l7.879,14.071l10.413,0l-12.551,-20.037l12.27,-20.825Z" style="fill:#fff;fill-rule:nonzero;"/></g></svg>