<svg viewBox="0 0 50 46" xmlns="http://www.w3.org/2000/svg" fill-rule="evenodd" clip-rule="evenodd" stroke-linejoin="round" stroke-miterlimit="1.414"><g fill-rule="nonzero"><path d="M24.964 29.172c-2.296 0-4.228-1.023-5.33-2.75 1.102 1.728 3.034 2.75 5.33 2.75 3.583-.047 6.318-2.64 6.318-6.412 0 3.771-2.735 6.365-6.318 6.412m-.006-16.602c-2.15-.006-4.308.619-6.075 1.892l-2.809-3.197 2.809 3.197c1.767-1.273 3.925-1.898 6.075-1.892m3.173.48a9.984 9.984 0 0 1 2.868 1.413l2.819-3.253-2.819 3.252a10.008 10.008 0 0 0-2.868-1.412M38.58 26.979l2.662-4.162-2.662 4.162zm-5.224-10.348c1.437 1.862 2.156 4.007 2.163 6.152-.007-2.145-.726-4.29-2.163-6.152M26.582 32.92c-2.64.417-5.413-.165-7.653-1.815 2.24 1.65 5.013 2.232 7.653 1.815m2.169-.615c.802-.311 1.58-.692 2.295-1.2l2.832 3.223-2.195 3.432H18.245h13.438l2.195-3.432-2.832-3.223c-.715.508-1.493.889-2.295 1.2M16.07 34.36l1.391 2.175-1.391-2.175zm-2.051-3.206l-4.162-6.506 4.162 6.506 2.6-2.219-2.6 2.219z" fill="#fff"/><path d="M38.58 26.979l-2.663 4.162-2.514-2.205c1.414-1.861 2.122-4.007 2.116-6.152-.006-2.145-.725-4.29-2.163-6.152l2.532-2.185 5.354 8.37-2.662 4.162zM31.683 37.76H18.245l-.784-1.224-1.391-2.175 2.859-3.256c2.24 1.65 5.013 2.232 7.653 1.815.742-.117 1.463-.341 2.169-.615.802-.31 1.58-.692 2.295-1.2l2.832 3.224-2.195 3.431zm-17.664-6.605l-4.162-6.506-1.172-1.832 5.354-8.37 2.58 2.231a10.138 10.138 0 0 0-2.086 6.094c-.001.041.009.082.009.122.006.907.15 1.811.405 2.693a9.94 9.94 0 0 0 .747 1.913c.263.497.572.977.925 1.436l-2.6 2.219zm17.263-8.395c0 3.773-2.735 6.365-6.318 6.412-2.296 0-4.228-1.022-5.33-2.75-.363-.566-.616-1.219-.782-1.928a7.253 7.253 0 0 1-.206-1.734c0-3.865 2.736-6.27 6.271-6.27 2.048 0 3.766.81 4.906 2.153.308.361.57.759.785 1.196a6.57 6.57 0 0 1 .674 2.921M16.074 11.266l2.243-3.506H31.61l2.207 3.45-2.818 3.253a10.01 10.01 0 0 0-2.868-1.413 10.873 10.873 0 0 0-3.173-.479c-2.15-.006-4.308.619-6.075 1.892l-2.809-3.197zM35.17 2.357H14.758L1.67 22.817l13.015 20.347h20.557l13.016-20.347L35.17 2.357z" fill="#989898"/></g></svg>